<svg xmlns="http://www.w3.org/2000/svg" xmlns:xlink="http://www.w3.org/1999/xlink" width="24" height="24" viewBox="0 0 24 24" fill="none"><path   fill="rgba(254, 191, 29, 1)"  d="M4.02576 21L4.02576 4C4.02576 3.0335 4.80926 2.25 5.77576 2.25L13.7758 2.25C14.7423 2.25 15.5258 3.0335 15.5258 4L15.5258 21C15.5258 21.4142 15.19 21.75 14.7758 21.75L4.77576 21.75C4.36154 21.75 4.02576 21.4142 4.02576 21ZM5.52576 21L4.77576 21L4.77576 20.25L14.7758 20.25L14.7758 21L14.0258 21L14.0258 4C14.0258 3.86193 13.9138 3.75 13.7758 3.75L5.77576 3.75C5.63769 3.75 5.52576 3.86193 5.52576 4L5.52576 21Z"></path><path    stroke="rgba(254, 191, 29, 1)" stroke-width="1.5"  stroke-linecap="round"  d="M2.77576 21L16.6053 21"></path><path    stroke="rgba(0, 0, 0, 1)" stroke-width="1.5" stroke-linejoin="round" stroke-linecap="round"  d="M10.2758 7.54999L7.77576 12.55L11.7758 11.55L9.27576 16.55"></path><path   fill="rgba(254, 191, 29, 1)"  d="M15.3099 11.96L17.5999 11.96L17.5999 12.71L17.5999 11.96C18.5664 11.96 19.3499 12.7435 19.3499 13.71L18.5999 13.71L19.3499 13.71L19.3499 20L18.5999 20L19.3499 20C19.3499 20.1381 19.4619 20.25 19.5999 20.25L19.5999 21L19.5999 20.25L19.9999 20.25L19.9999 21L19.9999 20.25C20.138 20.25 20.2499 20.1381 20.2499 20L20.9999 20L20.2499 20L20.2499 4L21.7499 4L21.7499 20L21.7499 20C21.7499 20.9665 20.9664 21.75 19.9999 21.75L19.9999 21.75L19.5999 21.75L19.5999 21.75C18.6334 21.75 17.8499 20.9665 17.8499 20L17.8499 20L17.8499 13.71L17.8499 13.71C17.8499 13.5719 17.738 13.46 17.5999 13.46L17.5999 13.46L15.3099 13.46L15.3099 11.96ZM15.3099 13.46C14.8957 13.46 14.5599 13.1242 14.5599 12.71C14.5599 12.2958 14.8957 11.96 15.3099 11.96C15.7241 11.96 16.0599 12.2958 16.0599 12.71C16.0599 13.1242 15.7241 13.46 15.3099 13.46ZM20.9999 4.75C20.5857 4.75 20.2499 4.41421 20.2499 4C20.2499 3.58579 20.5857 3.25 20.9999 3.25C21.4142 3.25 21.7499 3.58579 21.7499 4C21.7499 4.41421 21.4142 4.75 20.9999 4.75Z"></path><path    stroke="rgba(254, 191, 29, 1)" stroke-width="3"    d="M21 5.54675L21 9.66986"></path></svg>